<svg viewBox="0 0 512 512" xmlns="http://www.w3.org/2000/svg" xmlns:xlink="http://www.w3.org/1999/xlink" id="Capa_1" overflow="hidden"><g><g><g><path d="M504 304 344 304 344 288 352 288C356.418 288 360 284.418 360 280 360 275.582 356.418 272 352 272L344 272 344 264C344 246.327 358.327 232 376 232 393.673 232 408 246.327 408 264 408 268.418 411.582 272 416 272 420.418 272 424 268.418 424 264 424 237.49 402.51 216 376 216 349.49 216 328 237.49 328 264L328 304 193.76 304C197.755 299.627 199.979 293.923 200 288L200 240C200 235.582 196.418 232 192 232L72 232C67.582 232 64 235.582 64 240L64 288C64.021 293.923 66.245 299.627 70.24 304L8 304C3.582 304 0 307.582 0 312L0 504C0 508.418 3.582 512 8 512L504 512C508.418 512 512 508.418 512 504L512 312C512 307.582 508.418 304 504 304ZM80 248 184 248 184 288C184 292.418 180.418 296 176 296L88 296C83.582 296 80 292.418 80 288L80 248ZM128 496 16 496 16 400 128 400 128 496ZM128 384 16 384 16 320 40 320C40 324.418 43.582 328 48 328L96 328C100.418 328 104 324.418 104 320L128 320 128 384ZM368 496 144 496 144 320 368 320 368 496ZM496 496 384 496 384 400 496 400 496 496ZM496 384 384 384 384 320 408 320C408 324.418 411.582 328 416 328L464 328C468.418 328 472 324.418 472 320L496 320 496 384Z" fill="#FFFFFF"/><path d="M160 440 352 440C356.418 440 360 436.418 360 432L360 352C360 347.582 356.418 344 352 344L160 344C155.582 344 152 347.582 152 352L152 432C152 436.418 155.582 440 160 440ZM168 360 344 360 344 424 168 424 168 360Z" fill="#FFFFFF"/><path d="M304 464 208 464C203.582 464 200 467.582 200 472 200 476.418 203.582 480 208 480L304 480C308.418 480 312 476.418 312 472 312 467.582 308.418 464 304 464Z" fill="#FFFFFF"/><path d="M88 120 424 120C428.418 120 432 116.418 432 112L432 8C432 3.582 428.418 0 424 0L88 0C83.582 0 80 3.582 80 8L80 112C80 116.418 83.582 120 88 120ZM264 16 416 16 416 104 264 104 264 16ZM96 16 248 16 248 104 96 104 96 16Z" fill="#FFFFFF"/><path d="M200 56 136 56C131.582 56 128 59.582 128 64 128 68.418 131.582 72 136 72L200 72C204.418 72 208 68.418 208 64 208 59.582 204.418 56 200 56Z" fill="#FFFFFF"/><path d="M376 56 312 56C307.582 56 304 59.582 304 64 304 68.418 307.582 72 312 72L376 72C380.418 72 384 68.418 384 64 384 59.582 380.418 56 376 56Z" fill="#FFFFFF"/><path d="M91.2 197.6C84.569 201.418 80.346 208.356 80 216 80 220.418 83.582 224 88 224 92.418 224 96 220.418 96 216 96 214.312 96.8 213.424 100.8 210.4 107.431 206.582 111.654 199.644 112 192 111.654 184.356 107.431 177.418 100.8 173.6 96.76 170.568 96 169.68 96 168 96 166.32 96.8 165.44 100.8 162.4 107.431 158.582 111.654 151.644 112 144 112 139.582 108.418 136 104 136 99.582 136 96 139.582 96 144 96 145.672 95.2 146.56 91.2 149.6 84.569 153.418 80.346 160.356 80 168 80.346 175.644 84.569 182.582 91.2 186.4 95.2 189.432 96 190.32 96 192 96 193.68 95.2 194.56 91.2 197.6Z" fill="#FFFFFF"/><path d="M140.8 162.4C147.431 158.582 151.654 151.644 152 144 152 139.582 148.418 136 144 136 139.582 136 136 139.582 136 144 136 145.672 135.2 146.56 131.2 149.6 124.569 153.418 120.346 160.356 120 168 120.346 175.644 124.569 182.582 131.2 186.4 135.2 189.432 136 190.32 136 192 136 193.68 135.2 194.576 131.2 197.6 124.569 201.418 120.346 208.356 120 216 120 220.418 123.582 224 128 224 132.418 224 136 220.418 136 216 136 214.312 136.8 213.424 140.8 210.4 147.431 206.582 151.654 199.644 152 192 151.654 184.356 147.431 177.418 140.8 173.6 136.8 170.568 136 169.68 136 168 136 166.32 136.8 165.416 140.8 162.4Z" fill="#FFFFFF"/><path d="M180.8 162.4C187.431 158.582 191.654 151.644 192 144 192 139.582 188.418 136 184 136 179.582 136 176 139.582 176 144 176 145.672 175.2 146.56 171.2 149.6 164.569 153.418 160.346 160.356 160 168 160.346 175.644 164.569 182.582 171.2 186.4 175.2 189.432 176 190.32 176 192 176 193.68 175.2 194.576 171.2 197.6 164.569 201.418 160.346 208.356 160 216 160 220.418 163.582 224 168 224 172.418 224 176 220.418 176 216 176 214.312 176.8 213.424 180.8 210.4 187.431 206.582 191.654 199.644 192 192 191.654 184.356 187.431 177.418 180.8 173.6 176.8 170.568 176 169.68 176 168 176 166.32 176.8 165.416 180.8 162.4Z" fill="#FFFFFF"/></g></g></g><g></g><g></g><g></g><g></g><g></g><g></g><g></g><g></g><g></g><g></g><g></g><g></g><g></g><g></g><g></g></svg>